<?xml version="1.0" encoding="UTF-8"?>
<svg width="216px" height="46px" viewBox="0 0 216 46" version="1.1" xmlns="http://www.w3.org/2000/svg" xmlns:xlink="http://www.w3.org/1999/xlink">
    <!-- Generator: Sketch 40.3 (33839) - http://www.bohemiancoding.com/sketch -->
    <title>Happy Tech Final</title>
    <desc>Created with Sketch.</desc>
    <defs></defs>
    <g id="Page-1" stroke="none" stroke-width="1" fill="none" fill-rule="evenodd">
        <g id="Happy-Tech-Final">
            <g id="Logo">
                <g id="Icon">
                    <path d="M20.872,34.374 C16.048,34.374 12.01,30.954 11.048,26.412 L8.616,26.412 C9.612,32.284 14.721,36.774 20.872,36.774 C27.023,36.774 32.132,32.284 33.128,26.412 L30.696,26.412 C29.734,30.954 25.696,34.374 20.872,34.374 L20.872,34.374 Z" id="Shape" fill="#F78600"></path>
                    <path d="M27.189,4.448 L27.189,8.172 C33.645,10.706 38.235,16.985 38.235,24.328 C38.235,33.903 30.446,41.693 20.872,41.693 C11.298,41.693 3.509,33.903 3.509,24.328 C3.509,16.984 8.099,10.706 14.554,8.172 L14.554,4.448 C6.13,7.132 0.009,15.026 0.009,24.328 C0.009,35.833 9.368,45.193 20.872,45.193 C32.376,45.193 41.735,35.833 41.735,24.328 C41.735,15.026 35.614,7.132 27.189,4.448 L27.189,4.448 Z" id="Shape" fill="#2081D1"></path>
                    <rect id="Rectangle-path" fill="#2081D1" x="19.123" y="0.979" width="3.5" height="23.35"></rect>
                </g>
                <g id="Text" transform="translate(49.000000, 13.000000)">
                    <path d="M2.347,4.506 C2.347,4.115 2.123,3.891 1.731,3.891 L0.527,3.891 L0.527,0.784 L4.111,0.784 C5.455,0.784 6.015,1.372 6.015,2.688 L6.015,9.211 L14.779,9.211 L14.779,2.688 C14.779,1.372 15.367,0.784 16.683,0.784 L20.267,0.784 L20.267,3.891 L19.063,3.891 C18.671,3.891 18.447,4.116 18.447,4.506 L18.447,20.662 L14.779,20.662 L14.779,12.318 L6.015,12.318 L6.015,20.662 L2.347,20.662 L2.347,4.506 L2.347,4.506 Z" id="Shape" fill="#F78600"></path>
                    <path d="M29.087,11.703 L29.535,11.703 L29.535,11.59 C29.535,9.547 28.723,8.791 26.903,8.791 C26.259,8.791 24.999,8.959 24.999,9.742 L24.999,10.498 L21.695,10.498 L21.695,8.986 C21.695,6.326 25.447,6.047 26.931,6.047 C31.691,6.047 33.091,8.539 33.091,11.731 L33.091,17.051 C33.091,17.444 33.315,17.666 33.707,17.666 L34.827,17.666 L34.827,20.662 L31.635,20.662 C30.319,20.662 29.815,19.935 29.815,19.094 C29.815,18.731 29.843,18.479 29.843,18.479 L29.787,18.479 C29.787,18.479 28.695,20.999 25.475,20.999 C22.927,20.999 20.603,19.403 20.603,16.548 C20.603,12.066 26.763,11.703 29.087,11.703 L29.087,11.703 Z M26.343,18.227 C28.247,18.227 29.591,16.211 29.591,14.475 L29.591,14.139 L28.975,14.139 C27.127,14.139 24.187,14.391 24.187,16.379 C24.187,17.33 24.887,18.227 26.343,18.227 L26.343,18.227 Z" id="Shape" fill="#F78600"></path>
                    <path d="M36.423,10.023 C36.423,9.603 36.199,9.406 35.807,9.406 L34.687,9.406 L34.687,6.383 L37.851,6.383 C39.167,6.383 39.643,6.971 39.643,7.754 L39.643,8.315 L39.699,8.315 C39.699,8.315 40.903,6.047 44.235,6.047 C48.099,6.047 50.591,9.1 50.591,13.524 C50.591,18.059 47.791,20.999 44.039,20.999 C41.211,20.999 39.951,19.124 39.951,19.124 L39.895,19.124 C39.895,19.124 39.951,19.628 39.951,20.356 L39.951,26.262 L36.423,26.262 L36.423,10.023 L36.423,10.023 Z M43.395,18.002 C45.355,18.002 47.007,16.406 47.007,13.578 C47.007,10.863 45.551,9.099 43.451,9.099 C41.603,9.099 39.867,10.443 39.867,13.607 C39.867,15.818 41.043,18.002 43.395,18.002 L43.395,18.002 Z" id="Shape" fill="#F78600"></path>
                    <path d="M52.551,10.023 C52.551,9.603 52.326,9.406 51.935,9.406 L50.815,9.406 L50.815,6.383 L53.979,6.383 C55.295,6.383 55.771,6.971 55.771,7.754 L55.771,8.315 L55.827,8.315 C55.827,8.315 57.032,6.047 60.363,6.047 C64.227,6.047 66.719,9.1 66.719,13.524 C66.719,18.059 63.918,20.999 60.166,20.999 C57.338,20.999 56.078,19.124 56.078,19.124 L56.022,19.124 C56.022,19.124 56.078,19.628 56.078,20.356 L56.078,26.262 L52.551,26.262 L52.551,10.023 L52.551,10.023 Z M59.522,18.002 C61.482,18.002 63.134,16.406 63.134,13.578 C63.134,10.863 61.678,9.099 59.577,9.099 C57.729,9.099 55.993,10.443 55.993,13.607 C55.994,15.818 57.17,18.002 59.522,18.002 L59.522,18.002 Z" id="Shape" fill="#F78600"></path>
                    <path d="M69.52,23.547 C70.499,23.547 71.368,22.959 71.872,21.727 L72.347,20.635 L67.587,9.91 C67.419,9.49 67.224,9.406 66.831,9.406 L66.411,9.406 L66.411,6.383 L68.763,6.383 C69.773,6.383 70.277,6.746 70.64,7.727 L73.441,14.868 C73.72,15.595 73.945,16.772 73.945,16.772 L74,16.772 C74,16.772 74.225,15.594 74.477,14.868 L76.913,7.727 C77.249,6.747 77.837,6.383 78.817,6.383 L81.225,6.383 L81.225,9.406 L80.805,9.406 C80.385,9.406 80.16,9.49 79.992,9.91 L74.869,22.818 C73.861,25.394 71.844,26.543 69.717,26.543 C67.477,26.543 66.105,25.086 66.105,25.086 L67.477,22.566 C67.475,22.566 68.342,23.547 69.52,23.547 L69.52,23.547 Z" id="Shape" fill="#F78600"></path>
                    <path d="M93.207,3.891 L90.154,3.891 C89.763,3.891 89.539,4.116 89.539,4.506 L89.539,5.711 L86.318,5.711 L86.318,2.574 C86.318,1.258 86.767,0.783 88.111,0.783 L101.97,0.783 C103.314,0.783 103.763,1.258 103.763,2.574 L103.763,5.711 L100.542,5.711 L100.542,4.506 C100.542,4.115 100.317,3.891 99.927,3.891 L96.874,3.891 L96.874,20.662 L93.206,20.662 L93.206,3.891 L93.207,3.891 Z" id="Shape" fill="#2081D1"></path>
                    <path d="M108.971,6.047 C113.059,6.047 115.299,9.043 115.299,12.822 C115.299,13.242 115.215,14.138 115.215,14.138 L105.36,14.138 C105.639,16.658 107.487,17.974 109.643,17.974 C111.94,17.974 113.647,16.378 113.647,16.378 L115.131,18.841 C115.131,18.841 112.947,20.997 109.391,20.997 C104.659,20.997 101.719,17.581 101.719,13.522 C101.719,9.127 104.688,6.047 108.971,6.047 L108.971,6.047 Z M111.658,11.674 C111.603,9.967 110.426,8.791 108.97,8.791 C107.15,8.791 105.863,9.883 105.47,11.674 L111.658,11.674 L111.658,11.674 Z" id="Shape" fill="#2081D1"></path>
                    <path d="M123.867,6.047 C125.715,6.047 129.047,6.803 129.047,9.268 L129.047,10.948 L125.91,10.948 L125.91,10.163 C125.91,9.38 124.734,9.044 123.867,9.044 C121.402,9.044 119.638,10.919 119.638,13.495 C119.638,16.407 121.794,17.891 124.089,17.891 C126.527,17.891 128.318,15.959 128.318,15.959 L129.802,18.422 C129.802,18.422 127.673,20.998 123.782,20.998 C119.077,20.998 116.053,17.666 116.053,13.523 C116.055,9.49 118.967,6.047 123.867,6.047 L123.867,6.047 Z" id="Shape" fill="#2081D1"></path>
                    <path d="M131.09,4.422 C131.09,4.002 130.867,3.807 130.475,3.807 L129.354,3.807 L129.354,0.784 L132.743,0.784 C134.059,0.784 134.647,1.372 134.647,2.659 L134.647,7.671 C134.647,8.372 134.59,8.876 134.59,8.876 L134.647,8.876 C135.319,7.503 137.083,6.048 139.547,6.048 C142.738,6.048 144.531,7.7 144.531,11.48 L144.531,17.052 C144.531,17.445 144.754,17.667 145.146,17.667 L146.265,17.667 L146.265,20.663 L142.878,20.663 C141.562,20.663 141.001,20.104 141.001,18.759 L141.001,12.208 C141.001,10.472 140.524,9.296 138.733,9.296 C136.856,9.296 135.401,10.528 134.87,12.263 C134.702,12.824 134.645,13.441 134.645,14.113 L134.645,20.664 L131.088,20.664 L131.088,4.422 L131.09,4.422 Z" id="Shape" fill="#2081D1"></path>
                    <polygon id="Shape" fill="#2081D1" points="147.682 6.047 151.659 6.047 151.389 20.746 147.978 20.746"></polygon>
                    <path d="M160.535,6.141 C164.623,6.141 166.861,9.137 166.861,12.916 C166.861,13.336 166.777,14.232 166.777,14.232 L156.922,14.232 C157.203,16.752 159.051,18.068 161.207,18.068 C163.502,18.068 165.211,16.472 165.211,16.472 L166.693,18.935 C166.693,18.935 164.509,21.091 160.955,21.091 C156.223,21.091 153.281,17.675 153.281,13.616 C153.281,9.221 156.25,6.141 160.535,6.141 L160.535,6.141 Z M163.223,11.768 C163.166,10.061 161.991,8.885 160.535,8.885 C158.715,8.885 157.426,9.977 157.035,11.768 L163.223,11.768 L163.223,11.768 Z" id="Shape" fill="#2081D1"></path>
                    <circle id="Oval" fill="#F78600" cx="149.67" cy="26.617" r="2.97"></circle>
                </g>
            </g>
        </g>
    </g>
</svg>