<?xml version="1.0" encoding="UTF-8"?>
<svg width="42px" height="46px" viewBox="0 0 42 46" version="1.1" xmlns="http://www.w3.org/2000/svg" xmlns:xlink="http://www.w3.org/1999/xlink">
    <g id="Page-1" stroke="none" stroke-width="1" fill="none" fill-rule="evenodd">
        <g id="Group">
            <path d="M20.872,34.374 C16.048,34.374 12.01,30.954 11.048,26.412 L8.616,26.412 C9.612,32.284 14.721,36.774 20.872,36.774 C27.023,36.774 32.132,32.284 33.128,26.412 L30.696,26.412 C29.734,30.954 25.696,34.374 20.872,34.374 L20.872,34.374 Z" id="Shape" fill="#F78600"></path>
            <path d="M27.189,4.448 L27.189,8.172 C33.645,10.706 38.235,16.985 38.235,24.328 C38.235,33.903 30.446,41.693 20.872,41.693 C11.298,41.693 3.509,33.903 3.509,24.328 C3.509,16.984 8.099,10.706 14.554,8.172 L14.554,4.448 C6.13,7.132 0.009,15.026 0.009,24.328 C0.009,35.833 9.368,45.193 20.872,45.193 C32.376,45.193 41.735,35.833 41.735,24.328 C41.735,15.026 35.614,7.132 27.189,4.448 L27.189,4.448 Z" id="Shape" fill="#2081D1"></path>
            <rect id="Rectangle-path" fill="#2081D1" x="19.123" y="0.979" width="3.5" height="23.35"></rect>
        </g>
    </g>
</svg>
